<svg class="footer__section-logo" xmlns="http://www.w3.org/2000/svg" xmlns:xlink="http://www.w3.org/1999/xlink" style="isolation:isolate" viewBox="0 0 1211.61 431.36">
  <g>
    <g>
    <path d=" M 481.75 164.01 C 485.45 164.01 489.28 163.7 493.17 163.05 C 497.06 162.4 500.23 161.72 502.65 160.98 L 502.65 179.39 C 500.04 180.66 496.34 181.71 491.51 182.55 C 486.68 183.38 482.03 183.79 477.57 183.79 C 469.75 183.79 462.57 182.46 455.97 179.8 C 449.38 177.14 444.04 172.53 439.93 165.94 C 435.85 159.35 433.81 150.1 433.81 138.18 L 433.81 52.47 L 412.62 52.47 L 412.62 40.93 L 434.09 31.31 L 443.85 0 L 458.35 0 L 458.35 33.79 L 501.54 33.79 L 501.54 52.48 L 458.35 52.48 L 458.35 137.67 C 458.35 146.64 460.55 153.3 464.91 157.6 C 469.27 161.9 474.89 164.06 481.77 164.06 L 481.74 164.03 L 481.75 164.01 Z " fill="rgb(38,61,192)"></path>
    <path d=" M 567.5 30.05 C 585 30.05 597.94 34.01 606.36 41.97 C 614.75 49.93 618.94 62.56 618.94 79.93 L 618.94 181.04 L 601.8 181.04 L 597.24 159.98 L 596.16 159.98 C 589.91 168.12 583.34 174.11 576.46 177.98 C 569.58 181.85 560.08 183.78 547.92 183.78 C 534.89 183.78 524.08 180.22 515.51 173.11 C 506.94 166 502.66 154.86 502.66 139.73 C 502.66 124.6 508.27 113.56 519.53 105.51 C 530.78 97.46 548.1 93.09 571.52 92.34 L 595.9 91.5 L 595.9 82.64 C 595.9 70.26 593.3 61.68 588.11 56.87 C 582.92 52.07 575.62 49.66 566.15 49.66 C 558.64 49.66 551.52 50.81 544.73 53.12 C 537.94 55.43 531.6 58.05 525.72 61.01 L 518.48 42.73 C 524.73 39.24 532.15 36.21 540.72 33.71 C 549.29 31.21 558.22 29.97 567.51 29.97 L 567.51 30.03 L 567.5 30.05 Z  M 574.47 109.29 C 556.61 110.04 544.24 112.97 537.36 118.15 C 530.48 123.33 527.04 130.63 527.04 140.02 C 527.04 148.32 529.48 154.43 534.4 158.3 C 539.32 162.17 545.59 164.1 553.29 164.1 C 565.45 164.1 575.53 160.64 583.55 153.71 C 591.58 146.79 595.62 136.12 595.62 121.7 L 595.62 108.41 L 574.47 109.25 L 574.47 109.28 L 574.47 109.29 Z " fill="rgb(38,61,192)"></path>
    <path d=" M 679.63 109.95 L 632.46 39.36 L 657.96 39.36 L 693.13 93.8 L 728.07 39.36 L 753.31 39.36 L 706.14 109.95 L 755.87 183.78 L 730.37 183.78 L 693.16 126.12 L 655.44 183.78 L 630.2 183.78 L 679.67 109.95 L 679.64 109.95 L 679.63 109.95 Z " fill="rgb(38,61,192)"></path>
    <path d=" M 854.37 24.36 C 865.76 24.36 874.75 27.29 881.37 33.13 C 887.99 38.99 891.3 47.21 891.3 57.73 C 891.3 66.84 888.42 74.59 882.68 80.95 C 876.91 87.31 869.62 93.08 860.82 98.3 L 901.99 138.65 C 905.69 134.17 908.7 128.99 911.07 123.15 C 913.41 117.29 915.38 110.98 916.93 104.16 L 935.91 104.16 C 933.63 113.42 930.78 122.01 927.38 129.97 C 923.98 137.93 919.54 144.85 914.14 150.78 L 945.29 181.59 L 919.91 181.59 L 901.35 163.38 C 894.67 169.46 887.2 174.37 878.94 178.14 C 870.68 181.91 860.66 183.79 848.88 183.79 C 834.24 183.79 822.58 180.11 813.9 172.74 C 805.22 165.36 800.87 154.89 800.87 141.28 C 800.87 130.13 803.82 121.21 809.74 114.48 C 815.63 107.75 823.65 101.51 833.73 95.71 C 829.17 90.49 824.95 84.94 821.04 79.01 C 817.12 73.08 815.18 66.14 815.18 58.2 C 815.18 47.49 818.7 39.18 825.75 33.26 C 832.79 27.33 842.36 24.37 854.44 24.37 L 854.38 24.37 L 854.37 24.36 Z  M 844.99 107.65 C 837.31 112.28 831.3 116.97 826.95 121.76 C 822.61 126.55 820.45 132.81 820.45 140.62 C 820.45 148.43 823.09 154.95 828.35 159.7 C 833.6 164.48 840.64 166.86 849.45 166.86 C 858.26 166.86 866.36 165.35 872.92 162.29 C 879.45 159.26 884.94 155.65 889.35 151.45 L 844.99 107.64 L 844.99 107.65 Z  M 853.73 39.98 C 847.75 39.98 842.89 41.58 839.12 44.76 C 835.36 47.94 833.47 52.36 833.47 58 C 833.47 63.22 834.81 68 837.51 72.42 C 840.21 76.83 844.13 81.71 849.23 87.05 C 857.61 82.14 863.63 77.48 867.27 73.06 C 870.88 68.65 872.71 63.55 872.71 57.78 C 872.71 52.56 871.01 48.3 867.58 45 C 864.18 41.67 859.53 40 853.7 40 L 853.73 39.97 L 853.73 39.98 Z " fill="rgb(38,61,192)"></path>
    <path d=" M 587.68 217.6 C 603.82 217.6 615.85 221.87 623.84 230.38 C 631.83 238.89 635.81 252.69 635.81 271.71 L 635.81 367.58 L 612.67 367.58 L 612.67 272.79 C 612.67 249.53 603 237.89 583.69 237.89 C 569.86 237.89 559.98 242.01 554.05 250.27 C 548.12 258.5 545.16 270.5 545.16 286.25 L 545.16 367.55 L 522.02 367.55 L 522.02 272.76 C 522.02 249.5 512.26 237.86 492.77 237.86 C 478.43 237.86 468.49 242.44 462.98 251.6 C 457.47 260.76 454.75 273.94 454.75 291.17 L 454.75 367.55 L 431.37 367.55 L 431.37 220.29 L 450.23 220.29 L 453.67 240.34 L 454.99 240.34 C 459.42 232.64 465.41 226.91 472.92 223.17 C 480.46 219.43 488.46 217.54 496.99 217.54 C 519.32 217.54 533.84 225.77 540.58 242.26 L 541.9 242.26 C 546.69 233.85 553.19 227.6 561.45 223.58 C 569.68 219.56 578.42 217.55 587.64 217.55 L 587.67 217.61 L 587.68 217.6 Z " fill="rgb(38,61,192)"></path>
    <path d=" M 795.22 292.31 C 795.22 316.23 788.83 334.77 776.09 347.9 C 763.32 361.03 746.07 367.59 724.33 367.59 C 710.92 367.59 698.94 364.67 688.47 358.81 C 677.97 352.98 669.7 344.41 663.66 333.16 C 657.59 321.92 654.59 308.3 654.59 292.28 C 654.59 268.36 660.91 249.91 673.59 236.97 C 686.27 224.02 703.45 217.55 725.19 217.55 C 738.99 217.55 751.15 220.47 761.62 226.33 C 772.13 232.17 780.33 240.64 786.31 251.71 C 792.25 262.77 795.25 276.33 795.25 292.31 L 795.22 292.31 L 795.22 292.31 Z  M 680.39 292.31 C 680.39 309.39 683.93 322.95 691.02 332.91 C 698.11 342.91 709.41 347.89 724.9 347.89 C 740.39 347.89 751.47 342.91 758.66 332.91 C 765.85 322.91 769.42 309.39 769.42 292.31 C 769.42 275.23 765.81 261.83 758.66 252.1 C 751.48 242.38 740.14 237.51 724.62 237.51 C 709.1 237.51 697.86 242.37 690.87 252.1 C 683.87 261.83 680.36 275.23 680.36 292.31 L 680.39 292.31 Z " fill="rgb(38,61,192)"></path>
    <path d=" M 882.51 217.54 C 899.5 217.54 912.32 221.81 921.03 230.32 C 929.7 238.83 934.04 252.63 934.04 271.66 L 934.04 367.55 L 910.92 367.55 L 910.92 273.3 C 910.92 249.66 900.3 237.87 879.04 237.87 C 863.28 237.87 852.4 242.45 846.39 251.61 C 840.38 260.77 837.36 273.95 837.36 291.19 L 837.36 367.59 L 814 367.59 L 814 220.3 L 832.84 220.3 L 836.28 240.35 L 837.6 240.35 C 842.2 232.64 848.58 226.92 856.71 223.18 C 864.85 219.44 873.43 217.55 882.46 217.55 L 882.52 217.55 L 882.51 217.54 Z " fill="rgb(38,61,192)"></path>
    <path d=" M 1014.97 217.54 C 1027.39 217.54 1038.08 220.24 1047 225.62 C 1055.92 231.03 1062.77 238.63 1067.55 248.41 C 1072.33 258.23 1074.7 269.69 1074.7 282.81 L 1074.7 297.12 L 975.48 297.12 C 975.85 313.5 980.02 325.96 988.05 334.5 C 996.06 343.04 1007.29 347.33 1021.72 347.33 C 1030.91 347.33 1039.07 346.48 1046.2 344.78 C 1053.33 343.08 1060.66 340.59 1068.24 337.36 L 1068.24 358.15 C 1060.84 361.4 1053.53 363.77 1046.35 365.29 C 1039.14 366.81 1030.58 367.57 1020.66 367.57 C 1006.96 367.57 994.84 364.77 984.31 359.21 C 973.78 353.65 965.56 345.32 959.71 334.26 C 953.87 323.2 950.91 309.67 950.91 293.66 C 950.91 277.65 953.56 264.24 958.89 252.91 C 964.22 241.57 971.68 232.85 981.33 226.74 C 990.98 220.63 1002.18 217.56 1015 217.56 L 1014.97 217.53 L 1014.97 217.54 Z  M 1014.7 236.96 C 1003.35 236.96 994.39 240.61 987.79 247.9 C 981.21 255.2 977.29 265.32 976.04 278.26 L 1049.84 278.26 C 1049.66 266.01 1046.76 256.07 1041.19 248.45 C 1035.59 240.79 1026.76 236.99 1014.7 236.99 L 1014.7 236.96 L 1014.7 236.96 Z " fill="rgb(38,61,192)"></path>
    <path d=" M 1074.71 223.2 L 1099.99 223.2 L 1131.17 305.01 C 1133.86 312.17 1136.29 319 1138.44 325.52 C 1140.59 332.04 1142.2 338.27 1143.28 344.16 L 1144.37 344.16 C 1145.46 339.69 1147.15 333.83 1149.48 326.58 C 1151.81 319.33 1154.23 312.05 1156.75 304.71 L 1186.06 223.17 L 1211.61 223.17 L 1149.51 386.83 C 1144.48 400.42 1138 411.24 1130.01 419.28 C 1122.04 427.32 1111.05 431.36 1097.07 431.36 C 1092.77 431.36 1089.02 431.15 1085.78 430.7 C 1082.54 430.25 1079.78 429.76 1077.45 429.22 L 1077.45 410.43 C 1079.42 410.79 1081.78 411.15 1084.57 411.52 C 1087.35 411.88 1090.26 412.06 1093.32 412.06 C 1101.56 412.06 1108.25 409.73 1113.36 405.08 C 1118.48 400.43 1122.44 394.26 1125.32 386.56 L 1132.86 367.53 L 1074.79 223.21 L 1074.7 223.21 L 1074.71 223.2 Z " fill="rgb(38,61,192)"></path>
  </g>
    <g>
      <path d=" M 55.02 327.11 C 56.3 328.22 57.62 329.32 58.96 330.41 C 84.65 351.21 111.84 360.43 132.99 364.48 L 134.92 244.69 L 6.79 244.69 C 13.52 276.43 30.07 305.59 55.02 327.11 L 55.02 327.11 Z " fill="rgb(247,102,102)"></path>
      <path d=" M 40.74 47.31 L 41.95 122.31 L 42.94 183.41 L 195.43 183.41 L 193.22 320.12 C 207.49 316.54 224.21 309.82 240.39 297.39 C 242.33 295.9 244.24 294.34 246.09 292.75 C 270.21 271.92 284.35 241.2 284.88 208.47 L 287.48 47.32 L 40.74 47.32 L 40.74 47.31 Z " fill="rgb(38,61,192)"></path>
      <path d=" M 43.36 209.47 C 43.48 216.85 44.29 224.11 45.74 231.18 L 148.72 231.18 L 147.24 322.76 C 154.1 323.71 160.11 323.99 164.87 323.99 C 165.38 323.99 165.85 323.99 166.27 323.99 C 169.96 323.86 174.48 323.53 179.61 322.8 L 181.64 196.92 L 43.15 196.92 L 43.35 209.47 L 43.35 209.47 L 43.36 209.47 Z " fill="rgb(38,61,192)"></path>
      <path d=" M 166.54 335.95 C 166.04 335.95 165.48 335.96 164.86 335.96 C 160.89 335.96 154.7 335.78 147.03 334.79 L 146.52 366.53 C 155.75 367.57 162.94 367.62 167.05 367.57 C 169.96 367.47 173.99 367.26 178.89 366.74 L 179.41 334.9 C 173.95 335.6 169.54 335.85 166.55 335.95 L 166.55 335.95 L 166.54 335.95 Z " fill="rgb(38,61,192)"></path>
      <path d=" M 3.41 214.71 C 3.5 220.24 3.88 225.74 4.55 231.18 L 33.51 231.18 C 32.2 224.12 31.47 216.92 31.35 209.66 L 31.14 196.91 L 3.12 196.91 L 3.41 214.71 L 3.41 214.71 L 3.41 214.71 Z " fill="rgb(38,61,192)"></path>
      <path d=" M 0 3.73 L 2.9 183.41 L 30.91 183.41 C 30.11 134.06 29.32 84.71 28.52 35.35 L 299.69 35.35 L 296.89 208.66 C 296.31 244.32 281.02 278.41 253.96 301.78 C 251.97 303.5 249.89 305.2 247.72 306.86 C 228.46 321.65 208.69 328.9 193 332.48 L 192.48 364.74 C 212.31 361.02 239.2 352.41 265.31 332.36 C 267.93 330.34 270.45 328.3 272.86 326.22 C 292.29 309.43 306.71 288.08 315.37 264.48 C 318.55 255.81 320.95 246.85 322.54 237.68 C 323.92 229.74 324.69 221.65 324.82 213.51 L 328.21 3.74 L 0 3.74 L 0 3.73 Z " fill="rgb(38,61,192)"></path>
    </g>
</g>
</svg>